<?xml version="1.0" encoding="utf-8" ?>
<svg xmlns="http://www.w3.org/2000/svg" xmlns:xlink="http://www.w3.org/1999/xlink" width="1024" height="1024">
	<path fill="#183341" d="M203.358 751.142L203.554 777.396L177.328 784.008C177.32 781.839 181.057 777.87 182.449 776.08C189.139 767.475 196.051 759.217 203.358 751.142Z"/>
	<path fill="#183341" d="M829.551 279.313L829.987 279.497C832.152 280.792 834.914 286.829 836.364 289.07C854.233 316.674 870.541 347.592 880.026 379.208L872.376 380.772C870.79 381.178 869.389 381.461 867.75 381.514C864.313 373.288 861.343 364.859 857.816 356.666C852.967 345.404 847.569 334.247 841.781 323.435C835.549 311.795 828.024 300.963 821.307 289.632L829.551 279.313Z"/>
	<path fill="#183341" d="M150.601 635.578C151.209 636.283 151.159 636.083 151.427 636.771C159.9 658.565 169.198 679.751 180.986 700C184.581 706.176 188.403 712.337 192.355 718.292C194.576 721.639 197.238 724.847 199.069 728.42L200.437 731.106C198.848 733.2 195.773 738.093 193.5 739.134L191.01 737.805C184.249 729.601 178.369 720.23 172.819 711.169C159.099 688.77 146.788 664.241 139.156 639.045L150.601 635.578Z"/>
	<path fill="#183341" d="M200.133 623.054L202.75 622.878C204.487 625.636 203.46 640.573 203.459 645.095C203.457 658.25 203.445 671.405 203.417 684.56C203.398 693.543 203.712 702.762 202.659 711.694L188.174 688.856C181.758 677.398 175.92 665.562 170.628 653.544C167.618 646.708 164.506 639.83 162.323 632.679L200.133 623.054Z"/>
	<path fill="#183341" d="M813.529 300.861C816.846 303.397 819.618 309.119 821.783 312.705C831.504 328.807 839.903 345.127 847.14 362.495C850.184 369.799 853.387 377.017 855.715 384.592L847.124 386.799L813.365 394.871L813.529 300.861Z"/>
	<path fill="#183341" d="M456.276 550.551C457.42 550.38 458.359 550.5 459.498 550.635C460.655 552.322 460.145 556.925 460.147 559.063C460.155 566.703 460.118 574.343 460.084 581.982L419.934 592.002L419.993 702.148C414.277 704.347 407.953 705.496 402 706.996C395.084 708.737 388.187 710.912 381.128 711.945L380.948 665.75C380.95 651.959 380.955 638.169 380.969 624.378C380.976 617.212 380.472 609.646 381.27 602.528C371.268 604.231 361.215 607.452 351.348 609.893C348.38 610.627 343.708 612.645 340.773 611.727C339.821 608.428 340.273 604.128 340.253 600.681C340.212 593.707 340.178 586.733 340.098 579.759C344.853 577.791 350.425 576.808 355.445 575.601C363.1 573.762 370.728 571.816 378.381 569.97C404.351 563.705 430.46 557.402 456.276 550.551Z"/>
	<path fill="#183341" d="M423.59 303.814L472.075 273.251L472.123 369.311C467.837 370.955 463.039 371.797 458.588 372.938C449.825 375.186 441.075 377.454 432.295 379.636L430.523 379.988C426.57 381.109 422.346 382.528 418.284 383.054C411.785 383.751 405.454 384.977 399.211 386.951L398.88 387.636C396.433 388.866 393.643 389.317 391 389.979C386.997 390.983 383.031 391.976 378.978 392.767L378.924 283.189L423.59 303.814Z"/>
	<path fill="#FEFEFE" d="M399.072 316.463L457.345 316.48L457.434 348.014L432.215 348.029L432.295 379.636L430.523 379.988C426.57 381.109 422.346 382.528 418.284 383.054C411.785 383.751 405.454 384.977 399.211 386.951L399.072 316.463Z"/>
	<path fill="#183341" d="M418.239 347.993L430.443 348.045L430.523 379.988C426.57 381.109 422.346 382.528 418.284 383.054L418.239 347.993Z"/>
	<path fill="#183341" d="M840.335 240.647C841.926 240.633 843.069 240.314 844.387 241.25L796.181 299.027L795.991 413.18L875.529 394.459C867.809 403.809 860.713 413.801 853.25 423.367C850.086 427.422 846.385 433.599 841.899 436.082C836.892 437.656 831.693 438.734 826.609 440.052C814.553 443.179 802.478 446.117 790.385 449.09C783.683 450.738 776.97 452.36 770.251 453.94C767.185 454.661 763.909 455.761 760.785 456.089C759.967 456.174 759.318 455.991 758.546 455.75C757.227 453.14 757.957 447.396 757.958 444.357C757.961 434.296 757.955 424.236 757.953 414.175C757.946 380.194 757.546 346.164 758.006 312.19L758.59 311.376C765.195 302.283 773.245 293.709 780.75 285.339C789.323 275.778 797.771 266.115 806.498 256.694C809.331 253.635 812.448 249.053 815.828 246.815C818.138 245.285 821.871 244.863 824.543 244.231C829.809 242.986 834.985 241.51 840.335 240.647Z"/>
	<path fill="#183341" d="M326.573 423.153L326.97 423.108C333.436 422.687 340.925 423.127 345.816 427.963C354.36 436.41 352.384 458.571 352.414 469.719L315.745 478.74C315.663 471.903 316.37 463.941 314.75 457.284L313.25 456.667C308.024 457.049 281.655 463.379 278.423 465.762C276.63 467.084 276.223 469.11 276.005 471.194C275.29 478.012 275.43 484.897 275.411 491.743C275.383 501.736 275.415 511.73 275.494 521.722C275.539 527.452 275.399 533.299 276.031 539C276.133 539.918 276.211 541.995 276.614 542.75C276.899 543.285 277.371 543.697 277.75 544.171C278.333 544.393 278.878 544.785 279.5 544.837C281.713 545.021 286.72 543.096 289.047 542.496C294.754 541.025 300.493 539.672 306.207 538.222C308.123 537.736 310.546 537.54 312.327 536.72C318.045 534.087 313.906 518.251 316.133 513.25C321.882 510.681 329.074 509.767 335.233 508.262C340.592 506.954 346.134 504.881 351.634 504.478L352.284 504.435L352.148 526.015C352.039 530.115 351.598 534.398 350.289 538.303L350.046 539C349.178 541.536 348.045 544.013 346.625 546.292C336.968 561.802 319.194 564.959 302.849 569.139C292.74 571.725 282.558 574.233 272.382 576.541C264.249 578.387 254.534 579.511 247.216 574.588C241.623 570.827 239.335 565.354 238.284 558.933C236.187 546.109 237.413 531.65 237.378 518.636C237.355 509.674 237.281 500.712 237.295 491.75C237.305 485.039 237.165 478.124 238.365 471.5C239.677 464.247 242.315 456.797 246.768 450.863C249.768 446.866 253.891 443.322 258.29 440.957C268.115 435.673 279.836 433.822 290.572 431.165C302.449 428.225 314.487 425.024 326.573 423.153Z"/>
	<path fill="#183341" d="M701.118 490.207C705.741 490.26 710.318 490.859 713.841 494.191C721.241 501.19 721.353 511.952 721.496 521.423C721.578 526.861 721.629 532.3 721.673 537.738L684.429 547.092C684.555 540.105 684.91 532.628 683.974 525.708C683.842 524.731 683.736 524.901 683 524.347C678.901 523.275 651.222 530.889 646.556 532.824L646.148 533.56C645.138 535.432 644.533 537.31 644.331 539.437C643.782 545.224 644.111 551.274 644.116 557.094C644.124 567.585 644.147 578.076 644.233 588.567C644.271 593.279 644.321 597.99 644.407 602.701C644.449 605.062 644.204 608.034 645.058 610.25C645.718 611.963 646.09 612.326 647.75 612.988C655.808 610.843 663.976 609.052 672.06 606.979C675.141 606.189 678.362 605.86 681.25 604.481C686.491 598.869 683.244 588.066 684.644 581.048C686.357 579.511 717.255 572.246 721.272 571.686L721.965 571.596L720.935 600.104C721.017 605.676 717.036 612.411 713.779 616.75C709.721 622.158 703.84 626.626 697.817 629.573C687.596 634.574 675.097 636.633 664.049 639.348C654.719 641.642 645.2 644.423 635.708 645.838C629.068 646.827 620.62 647.228 615.065 642.834C609.035 638.066 606.8 632.436 606.007 624.902C604.492 610.503 605.492 595.095 605.481 580.594C605.475 572.444 605.474 564.295 605.492 556.145C605.506 550.4 605.264 544.355 606.342 538.692C607.832 530.858 610.322 523.522 615.511 517.321C619.143 512.98 623.643 509.958 628.784 507.668C637.274 503.887 647.08 502.179 656.074 499.907C670.78 496.192 685.972 491.456 701.118 490.207Z"/>
	<path fill="#183341" d="M487.288 113.276C494.639 112.782 502.075 112.876 509.443 112.849C540.409 112.732 572.01 116.184 602.088 123.706C612.718 126.364 622.836 130.084 633.281 133.183C648.516 137.704 662.745 143.69 677.045 150.574C680.665 152.317 684.414 153.671 688 155.542C692.784 158.039 697.185 161.057 701.855 163.673C704.772 165.307 707.809 166.494 710.705 168.284C714.159 170.419 717.27 173.173 720.735 175.384C723.073 176.875 725.701 177.734 727.984 179.185C740.309 187.017 752.813 196.492 763.912 205.983C767.317 208.895 770.903 211.947 774.07 215.106C776.209 217.239 778.052 219.662 780.228 221.77C787.281 228.598 795.357 234.797 801.191 242.786C799.189 245.709 796.364 249.237 793.5 251.314C792.917 251.196 792.303 251.179 791.75 250.959C791.221 250.748 790.278 249.652 789.846 249.222C787.58 246.969 785.573 244.449 783.328 242.171C781.04 239.849 778.57 237.706 776.234 235.431C760.303 219.919 742.914 205.525 724.46 193.086C687.928 168.464 647.327 150.508 604.776 139.249C524.706 118.06 437.988 125.411 362 157.952C346.119 164.753 331.202 172.839 316.29 181.509L304.25 189.026C236.532 233.498 184.554 298.042 156.729 374.266C150.227 392.078 145.473 410.189 141.631 428.728L128.262 431.454C128.51 426.963 129.783 422.332 130.74 417.931C132.538 409.658 134.519 401.459 136.96 393.348C152.7 341.045 177.221 293.375 212.58 251.539C262.352 192.651 330.374 148.152 404.719 127.437C431.838 119.881 459.287 115.663 487.288 113.276Z"/>
	<path fill="#183341" d="M475.542 384.063C477.118 383.866 477.985 383.762 479.316 384.639L479.566 526.07C471.044 528.597 462.21 530.387 453.592 532.616C450.813 533.334 444.908 535.596 442.324 534.686C441.338 532.552 441.8 528.963 441.796 526.595C441.784 520.212 441.807 513.828 441.787 507.444C441.756 497.793 440.613 487.097 441.859 477.563L403.912 487.12L403.895 545.592L374.874 552.813C371.906 553.588 369.34 554.214 366.25 553.963C365.346 551.637 365.635 549.155 365.653 546.698C365.68 542.977 365.679 539.255 365.69 535.533C365.73 522.54 365.778 509.547 365.795 496.554C365.832 468.584 365.676 440.614 365.688 412.645C370.015 410.615 375.308 409.831 379.963 408.654C387.927 406.64 395.847 404.454 403.854 402.613L403.908 455.2L441.913 445.675L441.876 392.951L475.542 384.063Z"/>
	<path fill="#183341" d="M916.999 381.268L917.341 381.467C916.332 384.21 914.042 386.792 912.294 389.115C909.478 392.859 906.667 396.608 903.844 400.347C892.813 414.953 881.576 429.407 870.62 444.069C855.622 464.141 840.926 484.442 825.912 504.5C822.991 508.402 820.332 512.426 817.241 516.211C829.579 534.79 843.208 552.56 855.863 570.924C857.272 572.968 858.22 575.171 859.608 577.216C862.513 581.494 866.214 584.286 868.718 589.064C859.436 591.507 850.047 593.693 840.713 595.951C835.793 597.142 830.079 599.358 825 598.989C821.474 597.242 818.604 590.429 816.43 587.115C808.975 575.749 801.857 563.623 793.705 552.772L776.42 555.98L776.669 611.252L771.366 612.587C764.416 614.195 757.494 615.961 750.577 617.707C747.346 618.523 743.932 619.715 740.643 620.113C739.584 620.241 738.754 620.182 737.819 619.664C736.864 616.547 737.445 612.014 737.44 608.699C737.426 600.404 737.415 592.109 737.408 583.813C737.379 549.06 737.588 514.3 737.248 479.548L776.009 470.032L776.016 527.055C786.436 510.762 797.172 494.628 807.993 478.592C812.546 471.844 817.041 463.45 822.777 457.682L848.782 450.707L898.029 385.533C901.345 384.463 904.609 383.742 908 382.974C909.722 382.584 911.428 381.889 913.203 382.235C914.645 382.515 915.719 381.875 916.999 381.268Z"/>
	<path fill="#183341" d="M898.643 428.934C901.151 432.68 901.714 440.505 902.427 444.969C906.531 470.659 908.737 496.102 908.077 522.141C905.818 611.364 870.58 701.387 813.783 770.027C803.378 782.601 791.869 794.417 780.028 805.635C705.25 876.481 603.846 913.929 501.13 910.922C401.026 907.991 301.252 865.08 232.292 792.086L225.425 784.514C229.648 782.481 234.78 781.489 239.371 780.62C246.349 789.42 256.001 797.797 264.527 805.093C342.004 871.385 442.683 903.639 544.261 895.705C641.549 888.106 735.449 841.564 798.994 767.15C846.997 710.936 881.094 638.669 891.202 565.25C895.171 536.422 895.238 507.144 893.168 478.162C892.938 474.943 893.07 471.697 892.798 468.483C892.694 467.25 892.573 466.448 893.191 465.312C893.88 464.044 893.509 463.412 893.295 462.014C891.448 459.955 891.429 457.129 891.061 454.5C890.486 450.393 889.864 446.292 889.264 442.189C891.975 437.474 895.165 433.11 898.643 428.934Z"/>
	<path fill="#183341" d="M330.795 581.04L332.867 581.133C334.02 588.163 333.323 596.28 333.355 603.426C333.392 611.531 334.241 620.521 333.003 628.456L290 614.851L289.369 614.657C287.365 614.074 285.233 614.754 283.25 615.177C278.966 616.09 272.448 617.063 268.682 619.35C266.254 620.825 264.675 623.764 264.014 626.448C262.76 631.547 263.436 638.021 263.435 643.287C263.434 645.943 263.062 648.895 264.417 651.25C264.944 651.661 265.372 652.252 266 652.482C267.7 653.106 297.057 644.796 301.816 644.025C304.413 643.605 306.898 643.636 309.507 643.92C316.368 644.667 326.268 645.651 330.761 651.622C332.023 653.299 332.795 655.453 333.121 657.515C334.511 666.323 333.929 676.29 334.014 685.209C334.103 694.607 334.854 704.721 333.703 714.055C332.477 723.985 330.005 733.724 321.975 740.492C318.202 743.672 313.775 745.73 309.155 747.349C302.052 749.838 294.53 751.368 287.239 753.228C274.145 756.568 261.042 759.858 247.932 763.131C241.801 764.661 235.675 766.254 229.561 767.853C225.794 768.838 221.895 770.39 217.963 770.142C217.009 761.043 217.777 751.125 217.799 741.942C217.828 730.134 217.33 718.171 217.838 706.391C229.594 710.137 241.151 715.341 252.697 719.759C256.817 721.336 261.236 723.455 265.515 724.435C267.51 724.891 269.668 724.558 271.655 724.197C275.57 723.486 285.437 721.712 287.601 718.341C290.305 714.126 290.247 693.861 288.648 688.98C287.973 686.918 286.569 686.491 284.572 686.692C281.111 687.041 277.678 688.11 274.309 688.947C268.584 690.37 262.876 691.822 257.141 693.207C254.479 693.85 251.795 694.703 249.059 694.944C242.147 695.554 234.071 693.64 228.018 690.343C223.505 687.885 221.147 683.766 219.859 678.932C217.648 670.628 218.777 659.948 218.844 651.293C218.893 645.019 218.481 638.336 219.361 632.127C220.144 626.605 221.529 620.464 224.379 615.625C226.452 612.104 229.377 609.09 233.034 607.227C240.192 603.577 248.306 601.635 256.07 599.718C263.631 597.852 271.172 595.947 278.742 594.118C296.114 589.921 313.524 585.627 330.795 581.04Z"/>
	<path fill="#183341" d="M714.789 325.112C720.699 324.709 728 324.118 733.165 327.56C734.976 328.767 736.101 330.717 737.272 332.503C740.117 336.843 741.686 339.831 742.637 345.036C743.646 350.557 743.43 356.44 743.444 362.044C743.463 369.786 743.466 377.528 743.47 385.27C743.475 394.296 743.475 403.322 743.462 412.348C743.452 418.992 743.638 425.673 742.64 432.265C741.648 438.82 739.477 445.256 735.603 450.693C731.881 455.917 727.242 459.988 721.561 462.958C712.658 467.611 701.853 469.487 692.164 471.98C680.236 475.05 668.257 478.357 656.126 480.507C650.006 480.856 642.174 481.263 636.75 477.921C630.969 474.359 628.156 469.431 626.834 462.86C625.777 457.607 625.81 452.19 625.672 446.85C625.426 437.267 625.55 427.653 625.542 418.067C625.535 410.629 625.532 403.19 625.55 395.752C625.564 389.922 625.465 383.822 626.371 378.051C627.66 369.838 630.103 362.22 634.755 355.255C638.279 349.979 643.553 345.409 649.15 342.471C657.173 338.258 666.301 336.51 675.016 334.293C688.191 330.942 701.459 327.788 714.789 325.112ZM700.652 359.09C693.812 360.834 686.951 362.499 680.096 364.18C676.295 365.112 672.038 365.688 668.483 367.371C667.191 367.982 666.115 368.946 665.367 370.168C664.309 371.897 663.81 374.093 663.6 376.09C663.04 381.398 663.435 387.207 663.43 392.563C663.42 405.361 663.589 418.055 663.981 430.839C664.081 434.075 664.161 437.312 664.28 440.548C664.334 442.04 664.201 443.988 664.678 445.392C665.037 446.451 665.736 447.089 666.75 447.514L668.136 447.94C676.685 445.405 685.419 443.546 694.034 441.243C696.113 440.688 699.234 440.319 701.059 439.229C702.217 438.538 702.934 437.588 703.525 436.391C704.744 433.92 704.597 430.24 704.684 427.516C704.887 421.142 704.851 414.752 704.869 408.375C704.915 392.398 705.343 376.203 704.464 360.25C703.31 359.031 702.841 358.944 701.137 359.021L700.652 359.09Z"/>
	<path fill="#183341" d="M583.751 358.116C587.207 357.789 590.795 357.652 594.25 358.038C600.001 358.679 603.045 361.804 606.535 365.928C609.219 369.1 610.318 371.978 611.141 376L611.499 377.703C612.781 384.361 612.464 391.372 612.479 398.122C612.499 406.964 612.5 415.807 612.495 424.65C612.49 432.029 612.485 439.409 612.467 446.789C612.454 451.816 612.635 457.011 611.965 462C610.94 469.637 609.254 477.639 604.783 484.051C601.258 489.107 596.196 493.35 590.706 496.152C582.242 500.472 572.721 501.936 563.669 504.366C550.614 507.872 537.589 511.612 524.243 513.934C517.491 514.457 510.508 514.568 504.682 510.595C499.14 506.815 496.539 501.421 495.317 495C493.84 487.248 494.008 479.201 493.972 471.345C493.928 461.879 493.909 452.412 493.897 442.946C493.886 433.196 492.893 422.131 494.322 412.523C495.598 403.946 497.827 395.144 502.87 387.925C506.022 383.414 510.078 379.449 514.907 376.777C524.832 371.285 536.391 369.181 547.29 366.452C559.364 363.428 571.498 360.325 583.751 358.116ZM568.046 392.078C563.245 393.388 558.49 394.825 553.656 396.011C549.492 397.032 545.321 398.034 541.162 399.075C539.351 399.528 536.849 399.966 535.326 401.076C534.652 401.568 534.178 402.376 533.798 403.099C533.116 404.396 532.749 405.639 532.58 407.089C531.926 412.694 532.38 418.961 532.377 424.631C532.369 437.901 532.581 451.053 533.037 464.306C533.185 468.61 532.554 474.665 533.638 478.75C533.981 480.043 534.63 480.425 535.75 480.976L538.786 480.723C544.018 479.51 570.132 474.065 572.195 470.818C572.883 469.735 573.354 468.524 573.512 467.25C574.764 457.204 573.943 446.14 573.953 436.004C573.967 421.969 574.821 407.169 573.419 393.25L572.5 392.118C571.018 392.046 569.524 391.904 568.046 392.078Z"/>
	<path fill="#183341" d="M565.779 523.695C568.391 523.25 572.318 523.23 574.912 523.766L575.5 523.897C577.705 524.343 579.43 524.937 581.299 526.25C586.91 530.194 589.131 536.419 590.033 542.983C592.091 557.954 591.013 573.927 591.013 589.067C591.013 596.857 591.008 604.648 590.985 612.438C590.965 618.998 591.025 625.865 589.872 632.34C588.685 639.003 586.416 645.321 582.23 650.694C577.395 656.901 571.113 661.427 564.04 664.75C554.792 669.096 543.601 671.004 533.685 673.454C521.766 676.4 509.653 679.949 497.474 681.486C490.899 681.575 484.136 681.285 478.771 677.039C473.229 672.653 471.662 666.409 470.926 659.686C469.535 646.968 470.427 633.499 470.437 620.69C470.443 612.415 470.455 604.14 470.488 595.865C470.511 589.785 470.364 583.458 471.441 577.453C473.071 568.368 475.683 559.347 481.614 552.084C485.363 547.494 489.997 544.028 495.349 541.516C506.151 536.447 519.325 534.227 530.908 531.365C542.335 528.542 554.065 524.847 565.779 523.695ZM548.538 557.112C540.813 559.1 533.07 561.044 525.33 562.97C521.737 563.865 517.591 564.496 514.201 565.962C512.761 566.584 511.481 567.524 510.625 568.854C509.505 570.595 509.022 572.374 508.796 574.413C508.201 579.769 508.457 585.372 508.446 590.761C508.423 602.566 508.807 614.256 509.069 626.038C509.163 630.275 509.227 634.513 509.317 638.75C509.362 640.89 509.179 643.426 509.618 645.5C509.81 646.406 510.136 647.134 510.972 647.582C511.866 648.062 511.515 647.912 512.632 648.02C519.68 646.659 526.537 644.709 533.5 642.989C537.725 641.945 547.497 640.764 550.057 637.25C551.131 635.776 551.449 633.966 551.631 632.2C552.278 625.941 552.032 619.537 552.138 613.25C552.353 600.401 552.307 587.572 552.214 574.721C552.187 570.934 552.156 567.146 552.085 563.359C552.061 562.041 552.286 560.002 551.941 558.75C551.709 557.904 551.636 557.879 551.224 557.25L548.538 557.112Z"/>
	<path fill="#183341" d="M224.321 422.538L225.75 422.641L226.078 423.228C226.786 424.616 226.892 481.445 226.183 483.281C225.422 485.255 213.675 480.592 211.581 479.915C204.322 477.569 197.068 475.21 189.795 472.909C185.989 471.704 181.483 469.783 177.446 469.761C171.356 469.728 163.36 472.439 157.845 474.95L157.556 475.344L157.083 476.006C152.504 482.327 153.989 494.028 154.101 501.638C154.142 504.446 154.091 506.656 156.242 508.75C163.291 508.031 171.154 505.488 178.01 503.659C183.186 502.278 189.938 500.08 195.285 499.918C199.911 499.778 204.521 500.896 209 501.944C212.949 502.868 216.945 503.939 220.485 505.965C223.462 507.669 226.193 510.418 227.031 513.839L227.179 514.495C228.882 521.705 228.033 530.324 228.038 537.747C228.045 550.728 228.916 564.615 226.845 577.425C225.929 583.087 224.089 588.828 220.996 593.694C218.303 597.927 214.176 600.955 209.645 602.972C204.607 605.216 199.028 606.455 193.71 607.883C183.684 610.576 173.583 612.987 163.5 615.455C145.285 619.913 127.076 625.03 108.75 628.944C107.507 628.38 107.625 628.186 107.096 626.9L107.102 563.416L157.009 581.284L157.75 581.504C160.252 582.265 162.71 581.478 165.201 580.934C170.341 579.811 175.507 578.692 180.269 576.415L180.558 575.984L181.013 575.25C181.393 574.675 181.781 574.18 182.074 573.544C183.916 569.536 183.35 550.03 181.895 545.75C180.803 544.742 180.289 544.157 178.75 544.099C176.154 544.002 172.778 545.332 170.25 545.982C164.123 547.558 157.982 549.091 151.837 550.593C148.145 551.496 144.454 552.643 140.641 552.929C133.632 553.455 124.296 551.223 118.018 548.061C113.479 545.774 110.458 542.326 108.925 537.449C106.643 530.188 107.291 521.357 107.228 513.802C107.13 502.158 106.576 489.516 108.338 478.022C109.259 472.02 111.074 465.157 114.073 459.827C117.202 454.269 121.392 450.91 127.081 448.175C132.121 445.752 137.616 444.4 143 442.992C151.309 440.819 159.65 438.845 167.998 436.833C186.798 432.303 205.648 427.569 224.321 422.538Z"/>
	<path fill="#183341" d="M340.608 740.069L343.25 737.65C345.121 736.232 347.994 735.759 350.242 735.206C354.574 734.14 358.91 733.088 363.24 732.015C371.146 730.055 379.02 727.87 386.903 725.807C463.053 705.885 539.424 686.905 615.73 667.577C654.18 657.838 692.519 647.691 731 638.057C745.351 634.464 759.794 630.445 774.242 627.344C775.989 626.969 777.406 626.97 779.165 627.25C779.138 627.934 779.161 627.969 778.99 628.75C778.349 631.681 776.303 634.847 775.057 637.625C762.699 665.171 745.222 690.842 724.566 712.807C720.905 716.7 717.16 721.403 712.585 724.207C709.839 726.549 707.222 728.524 704.202 730.474L703.994 730.642C697.479 737.964 689.067 743.616 681.194 749.381C655.164 768.441 624.629 782.936 593.454 791.202C572.227 796.831 550.304 799.675 528.402 800.861C493.523 802.749 456.493 797.987 423.32 787.205C418.804 785.738 411.78 784.106 408.296 780.951L402.559 778.154C400.643 777.755 400.415 777.565 399.045 776.308L392.62 774.077C386.656 771.569 380.831 768.02 375.262 764.727C363.206 757.598 351.077 749.396 340.608 740.069Z"/>
	<path fill="#FEFEFE" d="M392.47 741.528C403.157 738.723 413.923 736.182 424.606 733.332C432.76 731.156 441.784 727.89 450.125 727.07L449.976 731.221C442.408 731.964 434.611 734.833 427.27 736.901C417.826 739.562 408.288 742.009 398.957 745.043L399.045 776.308L392.62 774.077L392.47 741.528Z"/>
	<path fill="#219FA8" d="M450.125 727.07C456.858 728.335 465.1 726.965 472.005 726.891L472.278 766.658L451.461 767.164C451.457 762.929 451.889 747.848 450.1 744.897C449.427 740.632 449.966 735.577 449.976 731.221L450.125 727.07Z"/>
	<path fill="#183341" d="M398.957 745.043C408.288 742.009 417.826 739.562 427.27 736.901C434.611 734.833 442.408 731.964 449.976 731.221C449.966 735.577 449.427 740.632 450.1 744.897C451.889 747.848 451.457 762.929 451.461 767.164C443.03 768.61 434.879 770.607 426.906 773.759C420.595 776.255 414.953 779.358 408.296 780.951L402.559 778.154C400.643 777.755 400.415 777.565 399.045 776.308L398.957 745.043Z"/>
	<path fill="#FEFEFE" d="M450.1 744.897C451.889 747.848 451.457 762.929 451.461 767.164C443.03 768.61 434.879 770.607 426.906 773.759C420.595 776.255 414.953 779.358 408.296 780.951L402.559 778.154L450.003 762.833L450.1 744.897Z"/>
	<path fill="#219FA8" d="M442.295 738.547L443.897 738.649C444.592 740.639 444.302 743.305 444.33 745.433C444.386 749.872 444.428 754.311 444.468 758.751L406.617 769.945L405 770.297C403.449 768.697 404.323 752.384 404.338 748.886C408.485 748.241 412.634 746.858 416.685 745.765C425.252 743.452 433.723 740.843 442.295 738.547Z"/>
	<path fill="#FEFEFE" d="M686.212 662.882C687.483 663.55 688.967 664.441 690.424 664.547C694.461 664.839 700.793 662.235 704.8 661.196C707.33 660.541 709.389 659.764 711.89 660.75C712.738 662.704 712.476 664.751 712.485 666.845C712.503 671.19 712.504 675.535 712.504 679.881C712.504 694.657 712.512 709.431 712.585 724.207C709.839 726.549 707.222 728.524 704.202 730.474L703.994 730.642C693.712 733.341 684.357 738.848 673.911 740.919L656.466 734.851L655.993 672.666L686.212 662.882Z"/>
	<path fill="#183341" d="M687.462 712.67L687.644 712.811C688.051 715.829 687.81 719.09 687.792 722.149C687.775 725.001 688.007 728.215 687.477 731C686.202 731.879 685.319 732.296 683.825 732.7L683.037 731.879C682.445 731.221 681.807 730.502 681.641 729.601C680.836 725.232 681.784 718.55 681.927 713.998L687.462 712.67Z"/>
	<path fill="#183341" d="M701.472 667.611L702.491 667.668C701.323 669.349 698.426 671.068 696.736 672.381C692.163 675.935 687.661 679.607 682.916 682.932L671.997 678.5L665.848 675.866L686.919 668.526C691.537 670.513 696.855 668.758 701.472 667.611Z"/>
	<path fill="#183341" d="M706.429 673.143C707.416 676.883 706.663 682.872 706.663 686.851C706.664 698.769 706.814 710.718 706.478 722.631C701.302 726.508 694.202 728.578 688.213 730.905C689.37 725.184 689.331 718.134 688.689 712.331L697.94 710.16L697.831 694.055L670.875 696.056L670.908 704.88L670.935 734.558L661.976 731.069L661.554 680.51L684.625 688.962L706.429 673.143Z"/>
	<path fill="#FEFEFE" d="M580.128 684.222C585.606 686.431 590.917 688.941 596.24 691.494C598.905 692.772 602.371 694.96 605.25 695.398C609.558 696.053 614.112 695.183 618.301 694.22C625.046 697.134 632.504 701.417 638.49 705.681L638.484 763.819L627.875 767.305L596.233 780.033L580.354 771.684L580.128 684.222Z"/>
	<path fill="#183341" d="M586.506 692.299L605.019 701.099L617.392 699.883L630.235 706.81L595.522 719.568L595.571 736.62L595.69 773.1L586.565 767.823L586.506 692.299Z"/>
	<path fill="#183341" d="M632.657 712.046L633.183 712.206C634.781 715.234 633.976 723.06 634.022 726.668C634.164 737.731 634.358 748.8 634.264 759.865L601.625 771.777L600.779 771.445C599.49 769.345 600.242 762.394 600.228 759.652C600.166 747.755 600.11 735.857 600.057 723.96C606.186 721.495 612.407 719.259 618.6 716.961C623.247 715.236 627.851 713.285 632.657 712.046Z"/>
	<path fill="#FEFEFE" d="M627.718 737.597L628.455 738C629.389 743.672 628.882 750.286 628.956 756.078L607.744 763.527L607.106 763.442C606.094 762.268 606.508 759.536 606.507 757.944C606.505 753.193 606.503 748.442 606.5 743.691L627.718 737.597Z"/>
	<path fill="#FEFEFE" d="M559.246 701.007C560.455 701.1 560.263 701.094 561.123 701.75C562.149 708.384 561.442 716.067 561.442 722.812C561.442 736.761 561.444 750.711 561.38 764.661L490.119 788.495C489.398 788.467 488.929 788.313 488.25 788.09C487.461 785.781 487.727 783.12 487.721 780.698C487.71 776.605 487.713 772.512 487.701 768.42C487.654 753.564 487.61 738.708 487.655 723.852L559.246 701.007Z"/>
	<path fill="#183341" d="M543.446 759.581C544.135 759.542 544.506 759.653 545.158 759.842C545.681 761.029 545.724 762.227 545.836 763.5C544.302 766.029 534.676 768.312 531.675 769.335L530.636 769.322C529.494 767.742 529.574 767.147 529.407 765.25C531.615 762.222 539.737 760.57 543.446 759.581Z"/>
	<path fill="#183341" d="M516.458 768.577C518.11 768.466 518.272 768.266 519.566 769.25C519.89 770.652 520.159 771.249 519.75 772.651C516.045 775.342 510.016 776.705 505.64 778.229C504.567 778.392 503.924 778.49 502.891 778.12C502.235 776.874 502.534 775.595 502.668 774.25C504.97 771.047 512.614 769.67 516.458 768.577Z"/>
	<path fill="#183341" d="M553.061 708.549L555.5 708.534C557.068 711.131 555.943 746.083 555.904 751.806L497.104 770.572L495.75 770.882C495.504 770.588 495.156 770.355 495.013 770C494.459 768.625 494.867 764.131 494.84 762.408C494.66 750.877 494.589 739.339 494.671 727.807L553.061 708.549Z"/>
	<path fill="#219FA8" d="M547.783 716.461L549 716.487C550.21 718.116 549.527 743.433 549.522 747.199L502.718 762.406C501.445 762.553 502.019 762.7 500.987 762L500.906 731.872L547.783 716.461Z"/>
	<path fill="#183341" d="M331.437 283.76C339.18 276.305 347.896 270.515 356.862 264.667C404.635 233.509 463.619 217.97 520.48 219.124C555.334 219.831 591.159 227.21 623.065 241.357C633.912 246.167 644.202 251.935 654.776 257.245C662.668 261.207 670.698 266.707 677.778 271.998C681.671 274.907 685.015 278.582 689.485 280.704C691.774 281.79 694.107 284.075 696.083 285.687C701.808 290.356 707.195 295.108 712.504 300.25C714.551 302.232 718.355 305.04 719.25 307.761C716.986 309.87 711.062 310.503 707.941 311.287C697.782 313.837 687.608 316.385 677.438 318.886C627.355 331.205 577.375 343.905 527.25 356.05C517.881 358.32 508.471 360.475 499.122 362.82C493.995 364.106 487.53 366.626 482.342 366.784L472.123 369.311L472.075 273.251L423.59 303.814L378.924 283.189L378.944 261.126C375.236 263.474 371.288 266.505 368.183 269.603L368.43 396.175L243.465 426.673C251.792 385.995 271.04 348.139 297.709 316.387C302.372 310.836 308.082 303.166 314.127 299.186L315.011 298.654C316.835 297.337 318.281 295.746 320.27 294.626C322.857 290.841 328.071 286.912 331.437 283.76Z"/>
	<path fill="#FEFEFE" d="M331.437 283.76C335.33 282.258 342.897 278.7 346.904 279.75C347.812 280.733 348.185 281.047 348.396 282.418C349.053 286.699 348.536 291.904 348.541 296.278C348.55 304.344 348.837 312.534 348.504 320.588L348.411 322.031C342.857 324.711 336.474 325.777 330.569 327.517C326.338 328.764 321.525 330.907 317.201 331.296C316.274 330.33 315.614 329.886 315.377 328.491C314.824 325.233 315.417 321.097 315.399 317.75C315.364 311.386 315.161 305.015 315.011 298.654C316.835 297.337 318.281 295.746 320.27 294.626C320.298 301.708 320.353 308.791 320.436 315.872C320.466 318.39 319.997 321.931 321.25 324.095C322.608 324.478 324.456 324.235 325.75 323.641L326.571 323L326.55 317.052L327.428 317.203C328.192 318.795 328.277 320.864 328.528 322.604C333.756 321.4 338.849 320.101 343.819 318.051C344.053 311.715 343.905 305.323 343.91 298.981C343.914 294.816 344.262 290.36 343.527 286.25C340.473 285.263 333.787 289.568 330.756 290.851C327.304 292.312 323.881 293.614 320.27 294.626C322.857 290.841 328.071 286.912 331.437 283.76Z"/>
	<path fill="#183341" d="M320.27 294.626C323.881 293.614 327.304 292.312 330.756 290.851C333.787 289.568 340.473 285.263 343.527 286.25C344.262 290.36 343.914 294.816 343.91 298.981C343.905 305.323 344.053 311.715 343.819 318.051C338.849 320.101 333.756 321.4 328.528 322.604C328.277 320.864 328.192 318.795 327.428 317.203L326.55 317.052L326.571 323L325.75 323.641C324.456 324.235 322.608 324.478 321.25 324.095C319.997 321.931 320.466 318.39 320.436 315.872C320.353 308.791 320.298 301.708 320.27 294.626Z"/>
	<path fill="#219FA8" d="M326.481 298.883L339.942 294.168L340.081 313.161C336.443 314.105 330.416 314.895 327.428 317.203L326.55 317.052L326.481 298.883Z"/>
	<path fill="#FEFEFE" d="M662.551 271.227L662.871 271.292C664.291 272.981 663.555 301.996 663.527 306.528C650.068 311.591 635.099 313.267 621.303 317.503C620.636 316.6 620.156 315.891 620.008 314.75C619.474 310.604 619.954 305.65 619.944 301.422C619.921 291.814 619.658 282.111 620.148 272.517L662.551 271.227Z"/>
	<path fill="#219FA8" d="M630.898 275.322C637.919 273.751 646.211 273.835 653.428 273.532C655.591 273.442 658.769 272.935 660.75 273.693L661.131 275.398C654.798 278.11 646.844 280.735 640.012 281.727C637.873 279.38 633.554 277.289 630.898 275.322Z"/>
	<path fill="#183341" d="M640.012 281.727C646.844 280.735 654.798 278.11 661.131 275.398L661.514 305.598L625.816 314.553C624.932 309.702 625.113 304.741 625.08 299.827C625.03 292.386 625.041 284.945 625.092 277.504L625.623 277.689C629.025 278.918 632.504 281.515 635.874 282.364C637.093 282.672 638.819 282.041 640.012 281.727Z"/>
	<path fill="#219FA8" d="M653.586 284.579L655 284.334L655.517 284.75L655.667 301.119L632.638 307.244L632.091 307.345L631.45 306.75C631.434 301.184 630.637 294.127 631.711 288.75C637.785 290.22 647.623 286.216 653.586 284.579Z"/>
	<path fill="#FEFEFE" d="M301.508 344.234L342 334.345C343.651 334.02 344.196 333.784 345.616 334.75C346.708 337.943 346.027 343.024 346.03 346.426C346.036 354.987 345.83 363.581 346.299 372.129L349.998 376.25C350.14 378.574 349.856 380.034 348.95 382.176L347.667 383.308C343.084 385.436 337.341 386.885 332.374 387.732C330.041 388.891 326.774 389.287 324.232 389.956C317.361 391.765 310.465 393.466 303.574 395.197C301.228 394.206 298.786 393.407 296.75 391.844C296.571 390.286 296.479 390.108 297.218 388.75C298.675 387.816 299.892 387.53 301.582 387.205L301.508 344.234Z"/>
	<path fill="#183341" d="M347.667 383.308C343.736 382.882 339.157 384.244 335.25 384.955C334.008 384.443 334.193 384.168 333.658 383L334.243 382.25C337.507 381.374 342.582 379.296 345.898 379.534C347.287 379.634 348.064 381.149 348.95 382.176L347.667 383.308Z"/>
	<path fill="#183341" d="M302.091 389.521C308.189 388.876 314.841 386.718 320.804 385.168C323.379 384.5 326.591 383.199 329.25 383.638L330.572 385.717C326.169 387.607 305.3 392.94 301.201 392.287L299.659 391.25L299.801 390.307L302.091 389.521Z"/>
	<path fill="#183341" d="M305.772 346.993L341.899 338.435L341.525 377.51L326.242 381.275C324.766 381.198 324.36 381.242 323.14 380.451C322.224 376.673 322.498 372.618 322.526 368.75C323.588 367.469 324.734 367.511 326.322 367.12L337.049 364.566L337.147 352.088L311.902 356.99C311.948 361.142 313.05 383.251 311.582 385.25C309.855 385.681 308.34 386.169 306.557 385.879C305.027 383.793 305.635 378.024 305.63 375.36C305.614 365.906 305.584 356.446 305.772 346.993Z"/>
	<path fill="#FEFEFE" d="M395.488 247.486C414.962 247.308 434.435 247.112 453.909 247C459.657 246.967 465.405 246.943 471.153 246.942C473.915 246.942 477.019 246.677 479.75 247.002C480.425 247.083 480.91 247.412 481.477 247.75C482.819 249.627 482.375 353.841 482.342 366.784L472.123 369.311L472.075 273.251L423.59 303.814L378.924 283.189L378.944 261.126L395.488 247.486Z"/>
	<path fill="#183341" d="M400.439 257.653C415.745 257.016 431.272 257.489 446.602 257.439C452.021 257.421 457.44 257.404 462.859 257.399C465.711 257.396 468.979 257.082 471.75 257.722L471.947 258.75C470.125 261.381 465.99 263.497 463.27 265.293C455.984 270.106 448.58 274.749 441.25 279.494L422.755 291.192L380.821 272.057L400.439 257.653Z"/>
	<path fill="#FEFEFE" d="M593.768 241.025L595.75 241.372C595.988 241.748 596.322 242.078 596.465 242.5C596.756 243.356 596.483 245.542 596.488 246.496C596.511 250.433 596.531 254.371 596.549 258.308C596.61 271.65 596.626 284.992 596.689 298.333C596.728 306.605 597.095 315.02 596.484 323.269L510.005 346.268C508.358 346.324 508.12 346.413 506.75 345.544C506.074 342.045 506.395 338.184 506.39 334.609C506.382 328.005 506.384 321.401 506.385 314.797C506.386 298.194 505.464 281.091 506.557 264.56L593.768 241.025Z"/>
	<path fill="#183341" d="M576.226 316.56L578.75 316.573C579.181 317.081 579.336 317.219 579.681 317.859C580.285 318.977 580.376 320.298 580.071 321.5C577.09 324.208 569.294 325.204 565.303 326.189L561.25 327.243C560.061 325.892 560.447 322.799 560.374 320.96L576.226 316.56Z"/>
	<path fill="#183341" d="M542.529 325.609L545.5 325.49C546.726 326.65 546.436 328.35 546.541 330C544.137 333.077 533.199 334.868 529.105 335.99C527.69 336.226 526.918 336.696 525.668 335.888C525.507 334.165 525.328 331.609 526.302 330.103C527.18 328.746 540.111 326.193 542.529 325.609Z"/>
	<path fill="#183341" d="M586.985 248.59C588.32 248.43 589.113 248.069 590.319 248.75L590.255 307.618L517.135 327.225L515.25 327.552C514.999 327.285 514.632 327.091 514.496 326.75C514.146 325.876 514.217 323.793 514.164 322.818C513.949 318.787 514.079 314.679 514.074 310.64C514.057 296.511 514.052 282.382 514.044 268.253L586.985 248.59Z"/>
	<path fill="#219FA8" d="M581.785 258.588L583 258.556C584.176 260.201 583.377 296.753 583.36 302.076L522.626 317.73L521.5 317.907C520.353 316.563 520.925 310.032 520.92 307.875C520.893 296.689 520.825 285.502 520.761 274.315L581.785 258.588Z"/>
	<path fill="#183341" d="M868.389 604.136L870.697 604.25C870.839 604.918 870.953 605.287 870.983 605.939C871.087 608.293 869.646 611.518 868.93 613.762C867.145 619.364 865.397 624.962 863.451 630.51C845.169 682.641 818.803 729.772 781.336 770.528C718.467 838.917 625.704 881.24 533.056 885.226C459.169 888.405 387.846 871.267 324 833.898C307.611 824.305 290.735 813.223 276.734 800.37C274.083 798.508 271.933 796.149 269.489 794.045C263.45 788.847 256.891 783.484 251.825 777.283C264.185 774.287 276.545 771.279 288.891 768.224C299.414 765.621 311.062 763.649 320.734 758.636C325.847 755.985 329.744 752.422 333.8 748.381C337.462 750.611 340.796 753.519 344.258 756.062C349.693 760.054 355.288 763.877 361 767.463C382.239 780.8 405.423 791.995 429.551 799.054C447.603 804.335 465.616 807.208 484.249 809.358C543.933 816.247 607.92 803.084 660.279 773.838C666.104 770.583 671.758 767.108 677.422 763.587C679.236 762.46 681.53 761.551 683.137 760.193L683.636 759.75L684.539 759.805C685.531 759.318 686.074 759.093 686.777 758.221C688.462 756.135 690.943 754.504 693.059 752.869C697.356 749.551 701.782 746.39 706 742.971C713.677 736.748 721.003 730.016 728.07 723.115C749.13 702.549 766.28 677.794 779.69 651.665C784.6 642.099 788.579 631.995 793.764 622.593C803.505 619.029 814.646 617.476 824.75 614.959C839.28 611.339 853.803 607.537 868.389 604.136Z"/>
	<path fill="#183341" d="M500.634 138.766C544.965 136.623 591.362 144.355 633 159.503C638.058 161.343 642.786 163.785 647.727 165.796C654.008 168.352 660.481 170.625 666.649 173.443C671.886 175.835 677.559 178.57 682.481 181.57C687.846 184.84 693.495 189.158 699.25 191.587C702.57 192.988 705.348 195.338 708.415 197.236C714.933 201.269 721.489 205.067 727.599 209.737C733.591 214.317 738.953 219.53 745.192 223.802C749.254 226.583 752.706 229.896 756.385 233.128C766.386 241.917 776.001 251.144 784.532 261.392C782.57 264.412 779.845 267.108 777.496 269.848C772.235 275.984 766.819 281.98 761.481 288.049C758.495 291.444 754.291 298.013 750.489 300.177C748.601 301.251 745.992 301.699 743.886 302.247C740.07 303.241 736.273 304.282 732.475 305.341C716.854 287.862 698.195 272.805 678.684 259.904C650.241 241.096 619.435 226.483 586.319 217.998C509.825 198.398 426.518 211.011 358.705 251.337C343.513 260.869 328.892 271.108 315.478 283.063C288.849 306.796 266.646 337.286 251.507 369.534C246.069 381.119 242.237 393.077 237.461 404.89C232.275 406.593 226.796 407.65 221.5 409.005C208.797 412.257 196.062 415.378 183.328 418.506C177.218 420.007 171.11 421.512 165 423.008C161.736 423.808 157.994 425.333 154.607 424.899L154.48 423.851C154.457 421.411 155.45 418.395 155.984 416C157.615 408.693 159.659 401.537 161.895 394.396C179.211 339.101 208.916 289.988 248.983 248.236C313.695 180.804 407.433 140.738 500.634 138.766Z"/>
</svg>
