<?xml version="1.0" encoding="utf-8" ?>
<svg xmlns="http://www.w3.org/2000/svg" xmlns:xlink="http://www.w3.org/1999/xlink" width="500" height="298">
	<path fill="#AB191A" d="M262.175 169.933C263.038 169.975 263.82 170.17 264.625 170.48C265.17 171.112 265.332 171.64 265.231 172.5C265.142 173.259 264.669 173.552 264.151 174.033C263.359 174.061 262.593 174.152 261.875 173.75C261.408 173.269 261.162 172.751 261.136 172.069C261.099 171.085 261.567 170.615 262.175 169.933Z"/>
	<path fill="#AB191A" d="M357.371 150.624L358.625 150.535C359.295 150.558 359.855 150.721 360.303 151.232C360.635 152.029 360.831 152.782 360.491 153.625C360.188 154.374 359.561 154.416 358.878 154.626C358.148 154.866 357.604 154.696 356.943 154.375C356.425 153.696 356.19 153.255 356.263 152.375C356.337 151.47 356.705 151.17 357.371 150.624Z"/>
	<path fill="#AB191A" d="M397.537 184.875L398.203 184.792C399.1 184.746 399.708 184.989 400.375 185.551C400.59 186.385 400.808 187.449 400.384 188.254C400.027 188.933 399.525 188.928 398.848 189.126L398.375 189.245C397.61 189.236 397.131 188.91 396.599 188.403C396.383 187.936 396.138 187.456 396.176 186.928C396.254 185.863 396.784 185.48 397.537 184.875Z"/>
	<path fill="#AB191A" d="M358.129 157.375C358.88 157.309 359.515 157.37 360.25 157.491C360.917 158.574 360.483 171.433 360.472 173.75C359.882 174.272 358.501 174.068 357.687 174.074C357.184 174.078 356.996 174.003 356.562 173.748C356.292 171.699 355.932 158.668 356.768 157.561L358.129 157.375Z"/>
	<path fill="#AB191A" d="M396.645 191.875C397.773 191.675 398.929 191.738 400.07 191.756L400.306 192.074C400.887 193.041 400.795 206.741 400.468 208.25L399.544 208.541L398.375 209.032C397.721 208.807 397.36 208.508 396.875 208.022C396.256 206.475 396.49 204.285 396.471 202.62C396.446 200.432 396.436 198.245 396.432 196.057C396.43 194.682 396.336 193.222 396.645 191.875Z"/>
	<path fill="#AB191A" d="M260.051 157.344C260.702 157.297 260.778 157.209 261.314 157.625L261.349 161.252C260.469 161.164 259.674 161.217 258.808 161.397C257.848 161.597 256.741 162.04 256.125 162.849C255.636 163.491 255.741 164.592 255.734 165.36C255.712 167.467 255.748 169.574 255.655 171.68C255.618 172.508 255.717 173.273 255.25 173.969L252.687 173.973C252.337 173.977 252.096 173.797 251.806 173.625L251.573 157.41C252.387 157.418 254.58 157.216 255.209 157.635L255.598 157.892L255.749 157.972C256.363 158.305 259.216 157.463 260.051 157.344Z"/>
	<path fill="#AB191A" d="M325.525 157.374C326.168 157.295 326.784 157.315 327.428 157.336L327.862 157.912C327.956 158.918 328.171 159.905 327.578 160.792L327.106 161.101C325.391 161.6 323.84 162.276 322.196 162.965L322.45 163.531C322.647 164.452 322.501 165.703 322.502 166.66C322.503 168.502 322.997 172.613 322.001 174.111L318.972 174.068C317.173 173.392 319.232 159.873 317.853 157.387C318.352 157.409 321.858 157.372 322.031 157.625C322.34 158.077 322.15 158.471 322.625 158.942C323.551 158.214 324.428 157.795 325.525 157.374Z"/>
	<path fill="#AB191A" d="M348.637 150.375L352.384 150.325C353.274 151.908 352.791 155.52 352.785 157.394C352.768 162.762 352.748 168.131 352.727 173.5L352.062 174.018C350.687 174.179 349.326 174.106 347.95 174.025C348.733 172.906 348.227 169.094 348.213 167.659C348.179 163.981 348.275 160.295 348.333 156.618C348.365 154.63 348.195 152.303 348.637 150.375Z"/>
	<path fill="#AB191A" d="M404.355 184.625L408.312 184.561C409.127 185.994 408.663 204.756 408.496 207.875L407.554 208.341C406.348 208.68 405.911 208.844 404.763 208.375C404.572 208.161 404.383 207.913 404.326 207.625C403.874 205.323 403.772 185.585 404.355 184.625Z"/>
	<path fill="#AB191A" d="M297.505 187.421L301.033 187.498C301.182 187.67 301.333 187.867 301.405 188.085C301.761 189.161 301.527 190.786 301.023 191.77L305.594 191.727L305.846 192.14C306.209 193.046 306.047 194.317 305.622 195.172L301.038 195.12C301.201 195.325 301.367 195.559 301.443 195.813C301.655 196.527 301.508 197.63 301.5 198.386C301.484 200.008 301.986 203.092 301.285 204.455C302.348 204.653 305.09 204.729 305.798 205.25C305.891 205.98 305.684 206.267 305.384 206.919C305.645 207.476 305.718 207.624 305.678 208.229L305.125 208.688C302.938 208.515 300.357 208.417 298.739 206.71C296.584 204.436 297.461 198.184 297.523 195.055C296.63 195.125 295.632 195.331 294.914 194.771C294.845 193.839 294.714 192.898 294.941 191.98C295.498 191.557 296.449 191.727 297.125 191.742C297.769 190.995 297.488 188.487 297.505 187.421Z"/>
	<path fill="#AB191A" d="M309.824 187.62C311.074 187.327 312.468 187.474 313.746 187.506C313.933 187.723 314.101 187.964 314.157 188.25C314.374 189.361 314.309 190.544 313.71 191.515L318.149 191.732C318.314 191.966 318.42 192.107 318.486 192.39C318.712 193.358 318.58 194.448 318.055 195.286L313.611 195.216C313.791 195.505 313.984 195.844 314.064 196.176C314.269 197.024 314.173 198.135 314.192 199.011C314.226 200.537 314.636 203.244 313.893 204.582C315.026 204.764 317.706 204.737 318.488 205.25C318.592 206.173 318.517 206.577 318.066 207.389L318.447 208.25L318.125 208.872C314.821 208.698 313.038 207.748 310.293 206.035C310.413 205.727 310.44 205.608 310.371 205.277C309.898 203.027 310.49 196.286 309.616 195.128C309.228 195.179 308.861 195.217 308.47 195.165C307.868 195.085 307.805 195.116 307.448 194.625C307.387 193.736 307.27 192.863 307.544 192C308.068 191.528 308.546 191.552 309.217 191.517C309.614 191.497 309.606 191.411 309.892 191.158C309.965 190.005 310.155 188.737 309.824 187.62Z"/>
	<path fill="#AB191A" d="M422.753 191.625C423.825 191.556 424.962 191.714 426.036 191.791C426.148 192.138 426.257 192.507 426.271 192.875C426.331 194.414 425.049 196.784 424.518 198.25C423.582 200.83 422.764 203.45 421.735 205.998C421.411 206.799 421.197 207.755 420.552 208.369C419.592 209.283 418.348 209.142 417.125 209.083C415.661 207.41 414.902 204.231 414.172 202.131C413.852 201.21 413.681 200.244 413.023 199.494L412.911 199.372L413 198.839C412.883 197.369 411.349 192.899 410.377 191.946L414.701 191.731L415.047 192.091C415.935 193.274 416.513 196.383 416.961 197.845C417.379 199.205 418.04 200.63 418.345 202.002C418.446 202.454 418.351 202.967 418.266 203.416C419.291 202.237 419.332 201.383 419.745 199.932C420.239 198.196 420.841 196.487 421.404 194.773C421.761 193.691 422.015 192.519 422.753 191.625Z"/>
	<path fill="#AB191A" d="M364.677 157.375C365.734 157.309 366.818 157.432 367.875 157.505C368.2 157.9 368.381 158.099 368.875 158.254C369.811 157.847 370.761 157.56 371.77 157.393C373.58 157.093 375.531 157.163 377.054 158.304C377.957 158.98 378.553 159.996 378.679 161.12C378.912 163.212 379.146 172.883 378.229 174.068L374.531 174.01C374.673 173.776 374.814 173.521 374.872 173.251C375.013 172.605 374.884 171.717 374.879 171.044C374.865 169.454 375.204 166.425 374.313 165.121C374.779 164.164 374.819 162.871 374.442 161.823C374.283 161.381 374.03 161.121 373.604 160.946C372.201 160.37 369.24 162.3 367.874 162.857C368.024 163.138 368.164 163.441 368.217 163.758C368.366 164.642 368.27 165.678 368.275 166.582C368.286 168.443 368.744 172.578 367.814 174.026L364.124 174.057C365.552 172.181 363.464 160.874 364.677 157.375Z"/>
	<path fill="#AB191A" d="M353.837 191.374C355.853 191.064 358.347 191.521 360.071 192.607C361.229 193.336 362.165 194.749 362.445 196.083C362.739 197.491 362.92 200.097 362.086 201.32C359.92 201.325 357.744 201.429 355.576 201.463C354.414 201.481 352.972 201.344 351.875 201.72L351.744 202.375C352.013 203.32 352.247 204.198 353.125 204.748C354.193 205.417 355.714 205.263 356.875 205.045C357.944 204.844 358.353 204.139 359.089 203.402C359.658 202.831 360.294 202.87 361.048 202.871L361.308 202.872C361.852 202.933 362.043 202.905 362.482 203.25C362.497 203.81 362.552 204.496 362.365 205.031C361.928 206.286 360.502 207.271 359.416 207.908L358.578 208.376C356.984 209.162 354.587 209.14 352.938 208.543C351.044 207.857 349.176 206.682 348.349 204.764C347.498 202.789 347.589 197.47 348.405 195.533L348.832 194.589C349.936 192.665 351.799 191.911 353.837 191.374ZM353.517 195.125C352.742 195.916 351.981 196.703 351.963 197.883L351.978 198.25C352.992 198.98 355.402 198.732 356.687 198.731L358.5 198.696C358.887 198.047 358.686 197.478 358.49 196.757C358.265 195.927 357.591 195.394 356.875 194.981C355.718 194.914 354.665 194.967 353.517 195.125Z"/>
	<path fill="#AB191A" d="M305.818 157.121C308.173 156.841 310.651 157.073 312.637 158.488C313.816 159.328 314.395 160.395 314.621 161.809C314.879 163.421 315.049 173.065 314.375 174.038L313.307 174.186C312.539 174.26 311.491 174.234 310.875 173.726C310.789 173.203 310.707 172.926 310.375 172.508C309.794 172.682 309.338 173.069 308.796 173.328C307.407 173.993 305.767 174.357 304.233 174.216C301.683 173.982 301.247 172.594 299.796 170.877C300.007 169.704 299.685 168.525 300.203 167.362C300.761 166.108 301.741 165.434 302.967 164.92C305.171 163.994 308.221 164.652 310.61 164.375L310.941 163.75C310.839 162.651 310.77 161.626 309.793 160.915C308.529 159.993 306.639 160.404 305.192 160.567C305.115 160.79 305.049 160.975 304.93 161.18C304.503 161.913 303.774 163.073 302.871 163.214C301.979 163.352 301.218 163.141 300.519 162.625C300.471 161.766 300.435 160.96 300.85 160.177C301.848 158.294 303.931 157.69 305.818 157.121ZM305.782 167.374C304.883 167.592 304.715 167.658 304.06 168.375C304.021 169.417 303.984 169.586 304.625 170.472C305.505 170.958 306.269 170.962 307.228 170.678L307.703 170.378C308.92 169.918 309.908 169.417 310.472 168.178L310.766 167.433C309.195 167.196 307.36 167.196 305.782 167.374Z"/>
	<path fill="#AB191A" d="M433.186 157.125C435.325 156.882 437.442 156.972 439.425 157.884C440.803 158.519 441.752 159.65 442.248 161.084C442.803 162.686 442.813 172.603 442.123 174.053L441.73 174.106C440.669 174.231 439.256 174.298 438.403 173.625L438.479 172.625L438.13 172.374C436.448 173.716 434.407 174.334 432.257 174.234C429.691 174.114 429.082 172.871 427.526 171.184C427.915 170.048 427.304 168.75 427.706 167.515C427.96 166.737 428.521 166.162 429.123 165.636C432.099 163.031 435.417 165.332 438.375 163.765L438.471 162.5C438.127 161.739 437.956 161.269 437.234 160.784C436.66 160.398 435.987 160.385 435.316 160.384C434.529 160.382 433.749 160.428 433.099 160.916C432.042 161.711 432.016 163.078 430.421 163.324C429.506 163.465 428.774 163.547 428.032 163C427.974 161.813 427.959 161.059 428.578 160.004C429.628 158.216 431.259 157.613 433.186 157.125ZM433.818 167.375C433.035 167.524 432.555 167.646 431.936 168.198C431.691 168.852 431.7 169.204 431.882 169.875C432.462 170.549 432.562 170.705 433.466 170.758C434.098 170.795 434.768 170.62 435.291 170.27C436.506 169.957 437.672 169.498 438.371 168.39C438.517 168.158 438.444 167.811 438.437 167.539C437.537 166.938 434.942 167.279 433.818 167.375Z"/>
	<path fill="#AB191A" d="M327.382 191.375C329.231 191.306 331.837 191.406 333.375 192.544C334.492 193.37 335.416 194.374 335.598 195.787C335.828 197.565 336.042 208.049 335.25 209.094C334.459 209.071 333.577 209.047 332.875 208.64C332.28 208.294 331.846 207.676 331.2 207.299L331.03 207.202C329.547 208.053 327.823 209.261 326.055 209.013L325.374 208.929C322.931 208.575 321.906 206.977 320.536 205.167C320.958 204.171 320.664 202.906 321.073 201.84C321.548 200.605 322.569 199.729 323.764 199.231L323.938 199.16C326.37 198.152 329.34 199.388 331.744 198.625C331.825 197.712 331.719 196.559 331.166 195.791C330.744 195.206 330.088 194.945 329.4 194.825C328.097 194.599 326.59 194.84 325.796 195.955C325.481 196.397 325.095 197.175 324.631 197.455C323.872 197.914 322.738 197.766 321.913 197.625C321.629 197.375 321.366 197.245 321.291 196.857C321.139 196.058 321.731 194.634 322.182 193.968C323.455 192.086 325.319 191.755 327.382 191.375ZM325.65 201.874C324.945 202.854 325.021 203.164 325.025 204.375C325.694 205.094 326.166 205.235 327.159 205.248C327.971 205.26 328.726 204.966 329.472 204.682L329.813 204.27C330.786 203.866 331.275 203.432 331.944 202.625L331.969 201.875C330.383 201.442 327.303 201.643 325.65 201.874Z"/>
	<path fill="#AB191A" d="M433.572 191.375C435.404 191.178 437.407 191.386 439.128 192.07C440.54 192.63 441.647 194.017 442.211 195.405C442.906 197.114 442.769 206.877 442.033 208.6C441.29 208.582 439.599 208.697 439.047 208.198C438.569 207.764 438.699 207.382 438 207.039L436.958 207.625C435.158 208.519 432.922 209.222 430.941 208.528C429.673 208.083 428.806 207.355 428.228 206.137C427.974 205.603 427.687 205.124 427.369 204.626C427.684 203.849 427.994 201.546 427.859 200.713C428.09 200.613 428.269 200.516 428.471 200.362C430.219 199.024 431.594 198.4 433.821 198.544C434.983 198.618 437.49 198.982 438.332 198.25L438.3 196.824C438.251 196.231 438.013 195.807 437.553 195.442C436.341 194.481 434.379 194.906 432.945 195.057L432.944 195.246C432.859 195.829 431.943 197.042 431.484 197.426C430.92 197.898 429.886 197.998 429.171 197.949C428.494 197.903 428.431 197.87 428.005 197.375C427.964 196.403 427.865 195.331 428.403 194.471C429.664 192.455 431.386 191.901 433.572 191.375ZM435.305 201.875C434.241 202.002 432.85 201.987 432.087 202.816C431.8 203.485 431.697 203.852 431.875 204.568C432.558 205.107 433.497 205.138 434.371 205.031L434.791 204.94C436.374 204.545 437.43 203.848 438.499 202.625L438.625 201.992C437.8 201.551 436.265 201.777 435.305 201.875Z"/>
	<path fill="#AB191A" d="M285.781 150.586C286.775 150.391 287.845 150.427 288.849 150.527C291.131 150.754 293.748 151.602 295.216 153.463C296.434 155.008 296.957 156.92 296.731 158.875C295.76 159.454 293.869 159.205 292.74 159.2C292.559 158.344 292.463 157.265 292.031 156.495C291.475 155.504 290.37 154.564 289.269 154.279C287.908 153.926 285.802 154.021 284.574 154.772C283.557 155.394 282.739 156.565 282.471 157.723L282.415 157.988C281.935 160.121 281.69 164.322 282.159 166.443C282.477 167.884 283.252 169.008 284.522 169.777C285.751 170.521 287.605 170.755 288.987 170.361C290.213 170.012 290.874 169.547 291.804 168.67C292.393 167.604 292.603 166.555 292.834 165.367L297.165 165.28C296.96 167.128 296.832 169.05 295.767 170.634C294.366 172.719 292.398 173.674 289.981 174.095C287.117 174.594 283.614 174.162 281.219 172.446C279.204 171.001 278.339 169.14 278.001 166.719C277.521 163.277 277.203 156.781 279.345 153.954C280.997 151.773 283.17 150.97 285.781 150.586Z"/>
	<path fill="#AB191A" d="M335.048 157.374C336.687 157.2 338.951 156.966 340.532 157.528C342.221 158.127 343.728 159.032 344.496 160.716C345.423 162.75 345.46 168.192 344.66 170.248L344.558 170.5C344.418 170.865 344.284 171.143 344.052 171.462C342.851 173.108 341.272 173.813 339.305 174.098L339.218 174.136C337.475 174.587 334.973 174.319 333.375 173.477C331.909 172.706 330.878 171.64 330.375 170.056L330.323 169.899C329.681 167.947 329.612 162.59 330.567 160.776C331.505 158.994 333.193 157.966 335.048 157.374ZM335.857 160.874C334.934 161.412 334.357 161.886 334.068 162.952C333.63 164.563 333.55 167.657 334.416 169.129C334.852 169.872 335.393 170.257 336.222 170.471C336.889 170.642 337.651 170.869 338.303 170.587C339.398 170.29 340.058 169.914 340.649 168.887C340.81 168.608 340.914 168.414 340.888 168.087C341.515 166.951 341.472 164.57 341.155 163.323C340.948 162.507 340.339 161.513 339.604 161.08C338.576 160.475 336.98 160.65 335.857 160.874Z"/>
	<path fill="#AB191A" d="M284.083 191.555C286.122 191.495 287.69 191.543 289.614 192.326C290.733 192.781 291.953 194.175 292.371 195.301C293.255 197.68 293.517 202.775 292.397 205.06C291.267 207.364 288.823 208.097 286.566 208.831C284.925 209.173 282.993 208.575 281.542 207.814C279.701 206.849 278.769 205.712 278.125 203.75L277.93 203.09C277.401 200.802 277.497 196.611 278.817 194.626C280.112 192.677 281.891 192.008 284.083 191.555ZM284.206 195.026C283.141 195.827 282.277 196.47 282.052 197.877C281.787 199.537 281.554 202.711 282.675 204.068C283.324 204.854 283.993 205.143 285 205.235C285.751 205.303 286.58 205.052 287.296 204.843C288.422 204.073 288.945 203.412 289.205 202.054C289.556 200.22 289.695 198.19 288.605 196.582C288.124 195.871 287.49 195.276 286.625 195.089C285.881 194.928 284.963 194.963 284.206 195.026Z"/>
	<path fill="#AB191A" d="M388.083 157.125C389.765 156.924 391.822 157.05 393.405 157.68C394.91 158.28 396.103 159.674 396.742 161.125L396.923 161.543C397.709 163.593 397.696 168.099 396.779 170.081L396.699 170.25C396.474 170.738 396.248 171.198 395.915 171.625C394.502 173.438 392.647 174.008 390.468 174.261C388.99 174.689 387.001 174.063 385.669 173.396C384.326 172.723 383.011 171.517 382.569 170.04C381.817 167.53 381.615 162.559 382.998 160.25C384.157 158.314 385.993 157.632 388.083 157.125ZM388.321 160.875C387.409 161.382 386.693 161.927 386.352 162.966C385.82 164.592 385.726 167.907 386.606 169.396C387.057 170.161 388.093 170.574 388.935 170.723C389.445 170.813 390.031 170.755 390.528 170.625C391.639 170.292 392.23 170.176 392.831 169.087C393.634 167.631 393.894 164.694 393.326 163.126C393.023 162.29 392.13 161.216 391.317 160.872C390.561 160.553 389.139 160.757 388.321 160.875Z"/>
	<path fill="#AB191A" d="M381.397 184.625C383.674 184.338 386.133 184.427 388.303 185.225C389.858 185.796 391.537 186.93 392.2 188.51C392.666 189.618 392.718 191.054 392.277 192.128C391.174 192.352 389.796 192.211 388.66 192.222L388.635 191.798C388.384 190.541 387.531 189.557 386.478 188.902C385.477 188.618 384.553 188.457 383.507 188.534C382.56 188.603 381.261 188.67 380.608 189.443C380.028 190.13 379.585 191.071 379.767 192C380.242 194.418 384.973 194.686 386.933 195.172C388.435 195.544 389.929 196.031 391.143 197.023C392.37 198.027 392.858 199.302 392.976 200.871C393.093 202.436 392.766 204.238 391.715 205.453C389.879 207.578 387.679 208.348 384.937 208.522C383.158 208.701 381.083 208.53 379.412 207.901C377.591 207.216 376.087 206.26 375.294 204.414C374.922 203.549 374.539 202.051 374.91 201.158C376.194 200.604 377.552 200.796 378.875 201.078C379.245 202.034 379.754 203.616 380.67 204.144L380.875 204.25C382.078 204.885 383.427 204.962 384.758 204.817C385.845 204.698 387.113 204.279 387.783 203.362C388.224 202.758 388.414 201.63 388.224 200.901C387.586 198.457 380.698 198.49 378.533 197.312C376.901 196.424 375.708 195.339 375.214 193.505C374.725 191.689 374.938 189.727 375.902 188.116C377.08 186.149 379.266 185.151 381.397 184.625Z"/>
	<path fill="#AB191A" d="M420.464 150.875C421.597 150.581 422.894 150.711 424.059 150.725C424.217 150.932 424.385 151.174 424.458 151.427C424.894 152.94 424.525 155.501 424.53 157.141C424.539 160.494 424.536 163.847 424.55 167.199C424.558 169.035 424.724 171.054 424.52 172.875C424.475 173.278 424.315 173.644 424.127 173.999C423.245 174.159 422.135 174.314 421.274 173.983C420.742 173.778 420.664 173.242 420.466 172.752L419.997 172.708C418.104 173.971 415.822 174.278 413.603 174.125L412.094 173.537C408.685 171.939 409.274 166.195 409.413 163.025C409.453 162.096 409.735 161.169 409.399 160.278C409.891 159.932 410.244 159.474 410.666 159.05C411.94 157.77 413.465 157.211 415.255 157.236C416.794 157.257 418.999 157.621 420.093 158.766C420.758 157.043 421.017 152.666 420.464 150.875ZM414.58 160.875C413.904 161.279 413.534 161.426 413.343 162.25C412.915 164.097 413.128 167.867 413.574 169.709C414.104 170.268 414.803 170.427 415.551 170.462C416.403 170.502 417.341 170.09 418.066 169.68C418.762 169.441 419.905 169.133 420.316 168.485C420.859 167.187 420.949 164.276 420.382 162.979L420.315 162.841C419.136 161.714 417.081 160.77 415.43 160.803L414.58 160.875Z"/>
	<path fill="#AB191A" d="M268.104 185.032L274.126 185.276C274.369 190.388 274.338 195.54 274.333 200.657C274.331 202.707 274.735 206.272 273.875 208.082L272.375 208.68C271.68 208.843 270.96 208.67 270.375 208.282C269.816 206.609 270.031 204.46 270.004 202.701C269.946 198.921 269.858 195.174 270.063 191.397L264.401 208.542L260.746 208.465L256.186 194.053C256.069 193.574 255.97 193.406 255.625 193.053C254.746 193.91 255.735 205.451 255.013 207.875C254.843 208.45 254.234 208.642 253.75 208.908C253.006 208.731 252.24 208.613 251.665 208.071C251.524 207.938 251.519 207.812 251.476 207.632C250.977 205.566 251.244 202.927 251.231 200.768C251.199 195.581 251.232 190.394 251.266 185.208L257.72 185.208L262.839 201.992C263.59 198.162 264.856 194.377 266.101 190.677C266.744 188.767 267.22 186.855 268.104 185.032Z"/>
	<path fill="#AB191A" d="M229.901 150.765C234.445 150.752 241.376 149.732 244.996 152.875C247.434 154.992 247.955 157.595 248.171 160.679C248.338 163.068 248.196 166.686 247.076 168.838C246.637 169.682 245.884 170.475 245.259 171.188C241.011 174.732 235.175 173.997 229.995 173.983C229.647 170.996 229.809 167.846 229.8 164.835C229.786 160.148 229.713 155.45 229.901 150.765ZM233.714 154.233C234.088 156.507 233.95 158.913 233.952 161.218C233.955 164.194 234.039 167.203 233.922 170.174C236.949 170.289 239.537 170.574 242.145 168.788C242.724 168.005 243.25 167.319 243.534 166.375L243.606 166.144C244.11 164.344 244.059 158.655 243.149 157.068L242.829 156.625C241.69 155.15 240.648 154.56 238.8 154.324L233.714 154.233Z"/>
	<path fill="#3B5460" d="M272.762 55.3898L287.916 55.3967L287.806 73.1667L305.804 73.2747L306.071 73.7928C306.51 75.0099 306.43 84.5967 305.872 85.6755L287.707 85.707C287.973 92.9562 287.727 100.296 287.749 107.556C287.761 111.468 287.468 115.799 288.362 119.616C288.702 121.067 289.361 122.277 290.417 123.333C293.976 126.894 301.393 125.844 306.044 125.885L306.259 126.197C306.857 127.241 306.519 129.345 306.237 130.476L306.436 130.799C306.633 131.316 306.528 132.317 306.535 132.886C306.556 134.608 306.909 137.208 306.161 138.772L305.215 138.762C295.617 138.737 285.575 139.394 278.27 131.875C275.909 129.445 274.226 126.289 273.45 122.997C272.18 117.609 272.697 111.496 272.705 105.973C272.716 99.1496 272.709 92.3248 272.775 85.5021L262.784 85.5364L262.734 73.2568L272.661 73.2997C272.41 71.2022 272.637 68.86 272.648 66.7333C272.668 62.9613 272.585 59.1571 272.762 55.3898Z"/>
	<path fill="#3B5460" d="M410.568 72.3746C418.215 71.661 426.375 72.8732 432.928 77.0128C437.854 80.1247 441.016 85.4298 442.209 91.0518C442.576 92.784 443.279 96.7661 442.318 98.2516C437.694 98.117 432.921 98.5901 428.332 98.0034L428.467 97.6418C428.904 95.9764 427.463 91.9258 426.555 90.4535C425.018 87.9621 422.521 86.2262 419.68 85.5591C415.452 84.5664 409.547 84.8906 405.836 87.2122C403.497 88.6758 401.777 91.1338 401.162 93.8266C400.291 97.6394 400.491 101.525 400.49 105.407C400.488 110.53 399.764 117.169 402.652 121.692C404.678 124.865 407.681 126.065 411.166 126.826C413.565 127.35 416.808 127.168 419.219 126.656C422.212 126.02 425.062 124.213 426.713 121.623C427.408 120.534 428.269 118.55 427.931 117.252L427.89 117.12L428.091 116.787C428.502 116.025 428.74 114.801 428.505 113.966L442.437 113.859C442.561 114.138 442.657 114.427 442.699 114.73C443.393 119.698 441.153 126.244 438.174 130.143C434.125 135.442 427.37 138.627 420.839 139.453C412.614 140.494 402.349 139.75 395.611 134.485C390.303 130.336 387.237 124.864 386.431 118.173C386.011 114.677 386.201 110.99 386.193 107.464C386.179 101.952 385.736 95.8891 387.021 90.5C387.771 87.3524 389.336 84.2675 391.342 81.7357C396.217 75.5841 403.09 73.2891 410.568 72.3746Z"/>
	<path fill="#AB191A" d="M174.811 46.1191C177.845 46.5247 181.404 46.2098 184.508 46.2863L177.541 75.3324L135.377 75.2394L105.805 186.05L73.6069 186.009L64.3128 186.035C64.7382 182.443 65.9546 178.738 66.9204 175.252C73.667 175.46 80.4682 175.271 87.2219 175.273C90.2739 175.274 93.5537 175.018 96.5661 175.522L126.406 64.8488L169.747 65.0701C170.219 61.0912 171.713 56.7529 172.748 52.875C173.317 50.7451 173.602 47.9673 174.811 46.1191Z"/>
	<path fill="#3B5460" d="M340.071 72.3742C347.194 71.6165 355.323 72.9671 361.422 76.8097C366.722 80.1486 370.444 85.2495 371.812 91.3871C372.838 95.9855 372.526 100.813 372.578 105.5C372.594 106.961 373.04 109.5 372.277 110.721L328.511 110.633C329.608 112.062 328.853 115.258 329.105 117.094C329.516 120.101 331.321 123.156 333.759 124.967C337.606 127.823 343.559 128.328 348.194 127.621C351.238 127.157 354.974 125.822 356.819 123.186C357.837 121.733 358.76 119.358 358.42 117.576L365.437 117.501L372.219 117.657C372.357 117.898 372.482 118.155 372.538 118.428C373.264 121.925 370.866 127.086 368.85 129.869C364.858 135.379 357.861 138.269 351.327 139.336C342.67 140.75 331.737 139.642 324.548 134.403C319.709 130.876 316.325 125.701 315.423 119.729C314.808 115.657 315.011 111.481 315.011 107.373C315.011 100.609 314.564 93.8131 317.27 87.4478C318.082 85.5384 319.358 83.6765 320.598 82.016C325.183 75.8783 332.823 73.4315 340.071 72.3742ZM341.313 84.3746C337.498 85.0062 334.011 86.3659 331.647 89.592C329.557 92.4457 328.506 96.9789 328.975 100.5C329.96 101.436 343.17 100.973 345.437 100.965L358.444 100.989C359.334 99.4221 358.783 95.7184 358.318 93.9928C357.442 90.7432 355.444 87.9262 352.5 86.2478C348.945 84.2215 345.264 84.1943 341.313 84.3746Z"/>
	<path fill="#3B5460" d="M194.967 46.102L254.374 46.0062L254.456 60.5293L209.218 60.5159L209.145 84.7072L249.463 84.7122L249.512 98.9784C238.227 98.6348 226.844 98.7124 215.555 98.8868C214.186 98.9079 212.814 98.9554 211.446 98.938C210.705 98.9285 209.863 98.7484 209.226 99.125L209.192 100.937L209.198 124.218L254.696 124.045L254.722 138.952C252.594 138.567 250.181 138.763 248.008 138.762C244.082 138.76 240.156 138.759 236.23 138.758C221.744 138.756 207.257 138.734 192.771 138.803C192.616 116.93 192.849 95.038 192.841 73.1627C192.838 66.6731 192.842 60.1833 192.829 53.6938C192.826 52.0507 192.818 50.4077 192.818 48.7647C192.817 47.9848 192.7 47.0318 193.01 46.3131L194.967 46.102Z"/>
	<path fill="#3B5460" d="M48.7085 26.0674C51.9765 25.9824 55.5808 26.4523 58.7777 26.0359L54.0722 46.2263L92.9571 46.0781L63.2083 156.485L80.7857 156.538L110.668 46.1024L153.669 46.2023L159.081 26.2056C162.35 25.8765 165.873 25.9273 169.136 26.2839L166.579 36.7978L161.871 56.5043L119.619 56.5107C119.547 57.88 119.094 59.0911 118.736 60.3962C118.116 62.6529 117.482 64.9069 116.875 67.1671C114.785 74.954 112.774 82.7591 110.639 90.5329C103.636 116.032 96.7687 141.592 90.1156 167.184L48.3336 167.181L77.8938 56.5156L40.6107 56.5256C42.8651 48.7873 44.5693 40.8835 46.6388 33.0914C47.2145 30.9239 47.4106 27.8776 48.7085 26.0674Z"/>
</svg>
